<?xml version="1.0" encoding="UTF-8"?>
<svg xmlns="http://www.w3.org/2000/svg" xmlns:xlink="http://www.w3.org/1999/xlink" width="24px" height="24px" viewBox="0 0 24 24" version="1.1">
<g id="surface1">
<path style=" stroke:none;fill-rule:nonzero;fill:rgb(0%,0%,0%);fill-opacity:1;" d="M 20.929688 22.070312 L 20.257812 5.207031 C 20.242188 4.816406 19.921875 4.507812 19.53125 4.507812 L 16.484375 4.507812 L 16.484375 4.484375 C 16.484375 2.011719 14.472656 0 12 0 C 9.527344 0 7.515625 2.011719 7.515625 4.484375 L 7.515625 4.507812 L 4.46875 4.507812 C 4.078125 4.507812 3.757812 4.816406 3.742188 5.207031 L 3.070312 22.070312 C 3.046875 22.578125 3.230469 23.0625 3.585938 23.429688 C 3.9375 23.796875 4.414062 24 4.921875 24 L 19.078125 24 C 19.585938 24 20.0625 23.796875 20.414062 23.429688 C 20.769531 23.0625 20.953125 22.578125 20.929688 22.070312 Z M 8.21875 4.484375 C 8.21875 2.402344 9.914062 0.703125 12 0.703125 C 14.085938 0.703125 15.78125 2.402344 15.78125 4.484375 L 15.78125 4.507812 L 8.21875 4.507812 Z M 19.90625 22.941406 C 19.6875 23.171875 19.394531 23.296875 19.078125 23.296875 L 4.921875 23.296875 C 4.605469 23.296875 4.3125 23.171875 4.09375 22.941406 C 3.875 22.714844 3.761719 22.414062 3.773438 22.097656 L 4.445312 5.234375 C 4.449219 5.222656 4.457031 5.214844 4.46875 5.214844 L 7.515625 5.214844 L 7.515625 7.492188 C 7.515625 7.6875 7.671875 7.84375 7.867188 7.84375 C 8.0625 7.84375 8.21875 7.6875 8.21875 7.492188 L 8.21875 5.214844 L 15.78125 5.214844 L 15.78125 7.492188 C 15.78125 7.6875 15.9375 7.84375 16.132812 7.84375 C 16.328125 7.84375 16.484375 7.6875 16.484375 7.492188 L 16.484375 5.214844 L 19.53125 5.214844 C 19.542969 5.214844 19.550781 5.222656 19.554688 5.234375 L 20.226562 22.097656 C 20.238281 22.414062 20.125 22.714844 19.90625 22.941406 Z M 19.90625 22.941406 "/>
</g>
</svg>
